<svg width="24" height="24" viewBox="0 0 24 24" fill="none" xmlns="http://www.w3.org/2000/svg">
<path d="M0.159375 0.112499C0.0609375 0.196875 0.028125 0.262499 0.028125 0.393749C0.028125 0.5625 0.225 0.764061 5.74219 6.28125L11.4609 12L5.72813 17.7328C1.60313 21.8578 0 23.4891 0 23.5641C0 23.8125 0.1875 24 0.435938 24C0.510938 24 2.14219 22.3969 6.26719 18.2719L12 12.5391L17.7188 18.2578C23.2359 23.775 23.4375 23.9719 23.6063 23.9719C23.7375 23.9719 23.8031 23.9391 23.8875 23.8406C24.1313 23.5641 24.4688 23.9297 18.2719 17.7328L12.5391 12L18.2719 6.26719C22.3969 2.14219 24 0.510937 24 0.435936C24 0.1875 23.8125 0 23.5641 0C23.4891 0 21.8578 1.60312 17.7328 5.72812L12 11.4609L6.26719 5.72812C0.0703125 -0.468752 0.435938 -0.13125 0.159375 0.112499Z" fill="white"/>
</svg>
