<svg width="45" height="45" viewBox="0 0 45 45" fill="none" xmlns="http://www.w3.org/2000/svg">
<path id="Vector" d="M0.298828 0.210938C0.114258 0.369141 0.0527344 0.492188 0.0527344 0.738281C0.0527344 1.05469 0.421875 1.43262 10.7666 11.7773L21.4893 22.5L10.7402 33.249C3.00586 40.9834 0 44.042 0 44.1826C0 44.6484 0.351562 45 0.817383 45C0.958008 45 4.0166 41.9941 11.751 34.2598L22.5 23.5107L33.2227 34.2334C43.5674 44.5781 43.9453 44.9473 44.2617 44.9473C44.5078 44.9473 44.6309 44.8857 44.7891 44.7012C45.2461 44.1826 45.8789 44.8682 34.2598 33.249L23.5107 22.5L34.2598 11.751C41.9941 4.0166 45 0.958008 45 0.817383C45 0.351562 44.6484 0 44.1826 0C44.042 0 40.9834 3.00586 33.249 10.7402L22.5 21.4893L11.751 10.7402C0.131836 -0.878906 0.817383 -0.246094 0.298828 0.210938Z" fill="black"/>
</svg>
